<svg xmlns="http://www.w3.org/2000/svg" viewBox="0 0 300 300">
  <ellipse cx="90" cy="145" rx="50" ry="55" fill="#E1F0FF" stroke="#8CAFD2" stroke-width="5"/>
  <ellipse cx="180" cy="130" rx="60" ry="70" fill="#E1F0FF" stroke="#8CAFD2" stroke-width="5"/>
  <ellipse cx="220" cy="155" rx="50" ry="55" fill="#E1F0FF" stroke="#8CAFD2" stroke-width="5"/>
  <ellipse cx="155" cy="190" rx="95" ry="70" fill="#E1F0FF" stroke="#8CAFD2" stroke-width="6"/>
  <polygon points="108.0,129.0 112.1,139.3 123.2,140.1 114.7,147.2 117.4,157.9 108.0,152.0 98.6,157.9 101.3,147.2 92.8,140.1 103.9,139.3" fill="#FABE1E"/>
  <polygon points="192.0,129.0 196.1,139.3 207.2,140.1 198.7,147.2 201.4,157.9 192.0,152.0 182.6,157.9 185.3,147.2 176.8,140.1 187.9,139.3" fill="#FABE1E"/>
  <path d="M 150,202 L 180.1,209.5 A 32,22 0 0 1 119.9,209.5 Z" fill="#963232" stroke="#8CAFD2" stroke-width="4"/>
  <line x1="235" y1="55" x2="255" y2="55" stroke="#FFD23C" stroke-width="3" stroke-linecap="round"/>
  <line x1="245" y1="45" x2="245" y2="65" stroke="#FFD23C" stroke-width="3" stroke-linecap="round"/>
  <line x1="48" y1="80" x2="62" y2="80" stroke="#FFD23C" stroke-width="3" stroke-linecap="round"/>
  <line x1="55" y1="73" x2="55" y2="87" stroke="#FFD23C" stroke-width="3" stroke-linecap="round"/>
  <line x1="224" y1="210" x2="236" y2="210" stroke="#FFD23C" stroke-width="3" stroke-linecap="round"/>
  <line x1="230" y1="204" x2="230" y2="216" stroke="#FFD23C" stroke-width="3" stroke-linecap="round"/>
</svg>
